<svg xmlns="http://www.w3.org/2000/svg" viewBox="0 0 512 512">
  <defs>
    <linearGradient id="radar" x1="0.5" y1="0" x2="1" y2="0.5">
      <stop offset="0%" stop-color="#7DD3FC" stop-opacity="0.1"/>
      <stop offset="100%" stop-color="#38BDF8" stop-opacity="0.6"/>
    </linearGradient>
  </defs>
  <!-- Background circle -->
  <circle cx="256" cy="256" r="248" fill="white" stroke="#BAE6FD" stroke-width="8"/>
  <circle cx="256" cy="256" r="210" fill="white" stroke="#BAE6FD" stroke-width="5"/>
  <!-- Radar sweep -->
  <path d="M256 256 L380 132 A176 176 0 0 1 400 180 Z" fill="url(#radar)"/>
  <path d="M256 256 L400 180 A176 176 0 0 1 405 210 Z" fill="#7DD3FC" opacity="0.25"/>
  <!-- Threads @ symbol -->
  <path d="M295.5 243.5c-1.5-7.5-5.8-12.8-13.2-12.8-10.8 0-17.5 10.2-17.5 25.2 0 13.8 5.8 23.5 16.8 23.5 8 0 12.8-5.5 14.2-14l.2-1.2v-20.7zm36 18.5c0 33-15.8 52.5-48 52.5-14.5 0-25.8-3.5-34.2-10.5-2.2-1.8-1.8-3 .5-4.8l7-5.2c2-1.5 3.2-1.2 5 .5 6 5.5 13 8.2 22.2 8.2 20 0 30.8-12.2 30.8-33v-5.5c-5.5 8.5-14.5 14-26 14-22.5 0-37.5-17.2-37.5-42 0-26 15.8-44 39-44 11.5 0 20 4.8 25 13.2v-10.2h16.2v66.8z" fill="#111827"/>
  <!-- Outer @ circle path -->
  <path d="M256 148c-59.6 0-108 48.4-108 108s48.4 108 108 108c20 0 38.8-5.5 54.8-15" stroke="#111827" stroke-width="24" stroke-linecap="round" fill="none"/>
</svg>
