<svg xmlns="http://www.w3.org/2000/svg" viewBox="0 0 512 512" role="img" aria-label="LURE radar icon">
  <defs>
    <linearGradient id="sweep" x1="0" y1="0" x2="1" y2="1">
      <stop offset="0%" stop-color="#D9F4FF" stop-opacity="0.95"/>
      <stop offset="65%" stop-color="#74D6FF" stop-opacity="0.55"/>
      <stop offset="100%" stop-color="#74D6FF" stop-opacity="0"/>
    </linearGradient>
    <radialGradient id="coreGlow" cx="0" cy="0" r="1" gradientUnits="userSpaceOnUse" gradientTransform="translate(256 256) rotate(15) scale(180)">
      <stop offset="0%" stop-color="#74D6FF" stop-opacity="0.4"/>
      <stop offset="100%" stop-color="#74D6FF" stop-opacity="0"/>
    </radialGradient>
  </defs>

  <rect width="512" height="512" fill="#ffffff"/>

  <circle cx="256" cy="256" r="226" fill="none" stroke="#8DD7FF" stroke-width="4"/>
  <circle cx="256" cy="256" r="186" fill="none" stroke="#8DD7FF" stroke-width="4"/>

  <circle cx="256" cy="256" r="176" fill="url(#coreGlow)"/>
  <path d="M256 256 L389 122 A188 188 0 0 1 433 205 Z" fill="url(#sweep)"/>

  <path d="M319 245c-1.5-8.5-6.4-15-16-15-15.2 0-24.5 13.8-24.5 33.5 0 18.8 8.2 31.8 23.6 31.8 10.2 0 17-6.8 19.2-17.7l.3-1.6v-30zM366 273c0 44.5-22.2 70.5-65.8 70.5-19.8 0-35.4-4.8-47.2-14.2-3.2-2.5-2.5-4.6.6-7l9.8-7.2c2.8-2 4.5-1.6 6.9.7 8.4 7.8 18.2 11.7 31.3 11.7 27.6 0 42.4-16.8 42.4-45.3v-7.8c-7.5 11.8-20 19.4-36.1 19.4-31.2 0-52-23.6-52-57.8 0-35.4 21.8-59.7 54.2-59.7 16.2 0 28.1 6.6 35.2 18.1V180H366V273z" fill="#000000"/>
  <path d="M256 136c-66.2 0-120 53.8-120 120s53.8 120 120 120c22.6 0 44.2-6.2 62.6-17.8" stroke="#000000" stroke-width="30" stroke-linecap="round" fill="none"/>
</svg>
